<svg width="512" height="512" viewBox="0 0 512 512" fill="none" xmlns="http://www.w3.org/2000/svg">
    <path
        d="M256.812 436.8C308.01 435.089 335.034 429.954 378.824 409.813L417.694 444.357C454.5 453.819 487.36 427.241 470.602 390.382L446.848 364.474C497.559 314.284 511.089 281.172 510.553 204.712C506.228 78.241 357 32.5872 255.754 91.3645L304.341 354.234C284.002 363.753 273.528 364.381 256.812 359.632C234.138 369.643 208.225 354.234 208.225 354.234C208.225 354.234 242.718 334.728 255.754 314.284C271.171 332.74 282.217 341.149 304.341 354.234L255.754 91.3645C155.338 33.0682 6.33325 78.4073 2.01427 204.712C1.48926 279.553 15.3174 314.591 65.7192 364.474L41.9648 390.382C25.7687 426.005 57.0813 454.072 94.8723 444.357L133.743 409.813C179.351 430.773 207.381 435.307 256.812 436.8Z"
        fill="url(#paint0_linear_194_655)" />
    <path
        d="M198.475 400.356C198.475 401.847 197.267 403.055 195.776 403.055C194.285 403.055 193.077 401.847 193.077 400.356C193.077 398.866 194.285 397.658 195.776 397.658C197.267 397.658 198.475 398.866 198.475 400.356Z"
        fill="white" />
    <path
        d="M198.475 400.356C198.475 401.847 197.267 403.055 195.776 403.055C194.285 403.055 193.077 401.847 193.077 400.356C193.077 398.866 194.285 397.658 195.776 397.658C197.267 397.658 198.475 398.866 198.475 400.356Z"
        fill="white" />
    <path
        d="M217.906 413.311C217.906 414.801 216.698 416.01 215.208 416.01C213.717 416.01 212.509 414.801 212.509 413.311C212.509 411.82 213.717 410.612 215.208 410.612C216.698 410.612 217.906 411.82 217.906 413.311Z"
        fill="white" />
    <path
        d="M217.906 413.311C217.906 414.801 216.698 416.01 215.208 416.01C213.717 416.01 212.509 414.801 212.509 413.311C212.509 411.82 213.717 410.612 215.208 410.612C216.698 410.612 217.906 411.82 217.906 413.311Z"
        fill="white" />
    <path
        d="M225.463 383.084C225.463 384.574 224.255 385.783 222.764 385.783C221.274 385.783 220.065 384.574 220.065 383.084C220.065 381.593 221.274 380.385 222.764 380.385C224.255 380.385 225.463 381.593 225.463 383.084Z"
        fill="white" />
    <path
        d="M225.463 383.084C225.463 384.574 224.255 385.783 222.764 385.783C221.274 385.783 220.065 384.574 220.065 383.084C220.065 381.593 221.274 380.385 222.764 380.385C224.255 380.385 225.463 381.593 225.463 383.084Z"
        fill="white" />
    <path
        d="M257.849 416.549C257.849 418.04 256.641 419.248 255.15 419.248C253.66 419.248 252.451 418.04 252.451 416.549C252.451 415.059 253.66 413.85 255.15 413.85C256.641 413.85 257.849 415.059 257.849 416.549Z"
        fill="white" />
    <path
        d="M257.849 416.549C257.849 418.04 256.641 419.248 255.15 419.248C253.66 419.248 252.451 418.04 252.451 416.549C252.451 415.059 253.66 413.85 255.15 413.85C256.641 413.85 257.849 415.059 257.849 416.549Z"
        fill="white" />
    <path
        d="M255.69 376.607C255.69 378.097 254.482 379.305 252.991 379.305C251.501 379.305 250.292 378.097 250.292 376.607C250.292 375.116 251.501 373.908 252.991 373.908C254.482 373.908 255.69 375.116 255.69 376.607Z"
        fill="white" />
    <path
        d="M255.69 376.607C255.69 378.097 254.482 379.305 252.991 379.305C251.501 379.305 250.292 378.097 250.292 376.607C250.292 375.116 251.501 373.908 252.991 373.908C254.482 373.908 255.69 375.116 255.69 376.607Z"
        fill="white" />
    <path
        d="M284.837 394.959C284.837 396.449 283.629 397.658 282.139 397.658C280.648 397.658 279.44 396.449 279.44 394.959C279.44 393.468 280.648 392.26 282.139 392.26C283.629 392.26 284.837 393.468 284.837 394.959Z"
        fill="white" />
    <path
        d="M284.837 394.959C284.837 396.449 283.629 397.658 282.139 397.658C280.648 397.658 279.44 396.449 279.44 394.959C279.44 393.468 280.648 392.26 282.139 392.26C283.629 392.26 284.837 393.468 284.837 394.959Z"
        fill="white" />
    <path
        d="M240.577 402.515C240.577 404.006 239.368 405.214 237.878 405.214C236.387 405.214 235.179 404.006 235.179 402.515C235.179 401.025 236.387 399.817 237.878 399.817C239.368 399.817 240.577 401.025 240.577 402.515Z"
        fill="white" />
    <path
        d="M240.577 402.515C240.577 404.006 239.368 405.214 237.878 405.214C236.387 405.214 235.179 404.006 235.179 402.515C235.179 401.025 236.387 399.817 237.878 399.817C239.368 399.817 240.577 401.025 240.577 402.515Z"
        fill="white" />
    <path
        d="M290.235 416.549C290.235 418.04 289.027 419.248 287.536 419.248C286.046 419.248 284.837 418.04 284.837 416.549C284.837 415.059 286.046 413.85 287.536 413.85C289.027 413.85 290.235 415.059 290.235 416.549Z"
        fill="white" />
    <path
        d="M290.235 416.549C290.235 418.04 289.027 419.248 287.536 419.248C286.046 419.248 284.837 418.04 284.837 416.549C284.837 415.059 286.046 413.85 287.536 413.85C289.027 413.85 290.235 415.059 290.235 416.549Z"
        fill="white" />
    <path
        d="M320.462 411.152C320.462 412.642 319.254 413.851 317.763 413.851C316.273 413.851 315.064 412.642 315.064 411.152C315.064 409.661 316.273 408.453 317.763 408.453C319.254 408.453 320.462 409.661 320.462 411.152Z"
        fill="white" />
    <path
        d="M320.462 411.152C320.462 412.642 319.254 413.851 317.763 413.851C316.273 413.851 315.064 412.642 315.064 411.152C315.064 409.661 316.273 408.453 317.763 408.453C319.254 408.453 320.462 409.661 320.462 411.152Z"
        fill="white" />
    <path
        d="M311.826 398.197C311.826 399.688 310.617 400.896 309.127 400.896C307.636 400.896 306.428 399.688 306.428 398.197C306.428 396.707 307.636 395.498 309.127 395.498C310.617 395.498 311.826 396.707 311.826 398.197Z"
        fill="white" />
    <path
        d="M311.826 398.197C311.826 399.688 310.617 400.896 309.127 400.896C307.636 400.896 306.428 399.688 306.428 398.197C306.428 396.707 307.636 395.498 309.127 395.498C310.617 395.498 311.826 396.707 311.826 398.197Z"
        fill="white" />
    <path
        d="M304.269 370.129C304.269 371.62 303.061 372.828 301.57 372.828C300.08 372.828 298.871 371.62 298.871 370.129C298.871 368.639 300.08 367.431 301.57 367.431C303.061 367.431 304.269 368.639 304.269 370.129Z"
        fill="white" />
    <path
        d="M304.269 370.129C304.269 371.62 303.061 372.828 301.57 372.828C300.08 372.828 298.871 371.62 298.871 370.129C298.871 368.639 300.08 367.431 301.57 367.431C303.061 367.431 304.269 368.639 304.269 370.129Z"
        fill="white" />
    <path
        d="M334.496 390.641C334.496 392.131 333.288 393.339 331.797 393.339C330.307 393.339 329.098 392.131 329.098 390.641C329.098 389.15 330.307 387.942 331.797 387.942C333.288 387.942 334.496 389.15 334.496 390.641Z"
        fill="white" />
    <path
        d="M334.496 390.641C334.496 392.131 333.288 393.339 331.797 393.339C330.307 393.339 329.098 392.131 329.098 390.641C329.098 389.15 330.307 387.942 331.797 387.942C333.288 387.942 334.496 389.15 334.496 390.641Z"
        fill="white" />
    <path
        d="M346.371 403.595C346.371 405.085 345.162 406.294 343.672 406.294C342.181 406.294 340.973 405.085 340.973 403.595C340.973 402.104 342.181 400.896 343.672 400.896C345.162 400.896 346.371 402.104 346.371 403.595Z"
        fill="white" />
    <path
        d="M346.371 403.595C346.371 405.085 345.162 406.294 343.672 406.294C342.181 406.294 340.973 405.085 340.973 403.595C340.973 402.104 342.181 400.896 343.672 400.896C345.162 400.896 346.371 402.104 346.371 403.595Z"
        fill="white" />
    <path
        d="M188.759 379.845C188.759 381.336 187.551 382.544 186.06 382.544C184.57 382.544 183.361 381.336 183.361 379.845C183.361 378.355 184.57 377.146 186.06 377.146C187.551 377.146 188.759 378.355 188.759 379.845Z"
        fill="white" />
    <path
        d="M188.759 379.845C188.759 381.336 187.551 382.544 186.06 382.544C184.57 382.544 183.361 381.336 183.361 379.845C183.361 378.355 184.57 377.146 186.06 377.146C187.551 377.146 188.759 378.355 188.759 379.845Z"
        fill="white" />
    <path
        d="M183.361 413.311C183.361 414.801 182.153 416.01 180.663 416.01C179.172 416.01 177.964 414.801 177.964 413.311C177.964 411.82 179.172 410.612 180.663 410.612C182.153 410.612 183.361 411.82 183.361 413.311Z"
        fill="white" />
    <path
        d="M183.361 413.311C183.361 414.801 182.153 416.01 180.663 416.01C179.172 416.01 177.964 414.801 177.964 413.311C177.964 411.82 179.172 410.612 180.663 410.612C182.153 410.612 183.361 411.82 183.361 413.311Z"
        fill="white" />
    <path
        d="M170.407 393.879C170.407 395.37 169.199 396.578 167.708 396.578C166.218 396.578 165.009 395.37 165.009 393.879C165.009 392.389 166.218 391.18 167.708 391.18C169.199 391.18 170.407 392.389 170.407 393.879Z"
        fill="white" />
    <path
        d="M170.407 393.879C170.407 395.37 169.199 396.578 167.708 396.578C166.218 396.578 165.009 395.37 165.009 393.879C165.009 392.389 166.218 391.18 167.708 391.18C169.199 391.18 170.407 392.389 170.407 393.879Z"
        fill="white" />
    <path
        d="M123.206 293.365C124.169 287.976 121.506 283.152 115.888 283.609C108.268 284.229 102.966 300.228 119.177 305.551C132.467 309.916 142.143 299.812 157.455 284.22C191.667 249.384 232.978 246.005 258.171 281.172C268.555 261.898 309.486 229.77 371.984 296.414C394.942 320.896 415.456 297.872 404.218 285.237C399.105 279.489 389.112 287.516 394.144 293.365H393.136C369.68 272.382 418.676 252.775 428.385 288.285C438.418 341.735 382.521 350.424 337.742 330.953C251.196 287.263 250.272 299 166.513 335.018C140.808 345.647 109.326 339.573 96.6182 327.283C81.525 312.687 82.4584 278 102.052 271.011C122.05 262.92 138.968 280.243 123.206 293.365Z"
        fill="#FDF1D3" />
    <path d="M96.9988 220.621C96.9988 124.011 210.35 118.614 210.35 220.621L96.9988 220.621Z"
        fill="#FDF1D3" />
    <path
        d="M172.573 188.231C172.573 198.965 163.871 207.666 153.138 207.666C142.404 207.666 133.703 198.965 133.703 188.231C133.703 177.498 142.404 168.796 153.138 168.796C163.871 168.796 172.573 177.498 172.573 188.231Z"
        fill="#18A192" />
    <path d="M309.667 220.621C309.667 124.011 418.699 118.614 418.699 220.621L309.667 220.621Z"
        fill="#FDF1D3" />
    <path
        d="M383.081 188.231C383.081 198.965 374.38 207.666 363.647 207.666C352.913 207.666 344.212 198.965 344.212 188.231C344.212 177.498 352.913 168.796 363.647 168.796C374.38 168.796 383.081 177.498 383.081 188.231Z"
        fill="#18A192" />
    <defs>
        <linearGradient id="paint0_linear_194_655" x1="88.9025" y1="95.1668" x2="468.58"
            y2="445.998" gradientUnits="userSpaceOnUse">
            <stop stop-color="#F4AC4A" />
            <stop offset="1" stop-color="#C88A35" />
        </linearGradient>
    </defs>
</svg>