<svg width="512" height="512" viewBox="0 0 512 512" fill="none" xmlns="http://www.w3.org/2000/svg">
    <g clip-path="url(#clip0_181_560)">
        <circle cx="256" cy="256" r="256" fill="url(#paint0_linear_181_560)" />
        <path
            d="M431.088 222.999H412.484C409.597 183.595 391.909 146.744 362.975 119.847C334.04 92.95 296.002 78 256.5 78C216.998 78 178.96 92.95 150.025 119.847C121.091 146.744 103.403 183.595 100.516 222.999H81.9118C79.0178 222.999 76.2423 224.149 74.196 226.195C72.1496 228.242 71 231.018 71 233.913C71.0649 268.227 80.6106 301.857 98.5828 331.086C116.555 360.316 142.255 384.009 172.843 399.549V408.534C172.843 415.288 175.526 421.766 180.3 426.541C185.075 431.317 191.551 434 198.304 434H314.696C321.449 434 327.925 431.317 332.7 426.541C337.474 421.766 340.157 415.288 340.157 408.534V399.549C370.745 384.009 396.445 360.316 414.417 331.086C432.389 301.857 441.935 268.227 442 233.913C442 231.018 440.85 228.242 438.804 226.195C436.758 224.149 433.982 222.999 431.088 222.999ZM340.593 128.94C345.874 133.168 350.829 137.79 355.415 142.764C335.161 149.071 316.403 159.437 300.285 173.232C284.167 187.026 271.026 203.959 261.665 222.999H200.741C209.335 195.623 226.424 171.696 249.53 154.689C272.636 137.682 300.557 128.478 329.245 128.412C333.028 128.412 336.829 128.612 340.593 128.94ZM369.8 161.408C381.696 179.914 388.843 201.069 390.606 222.999H286.471C295.595 207.728 307.659 194.421 321.963 183.849C336.267 173.276 352.527 165.649 369.8 161.408ZM256.5 99.3085C273.171 99.2821 289.7 102.366 305.239 108.403C275.224 113.142 247.228 126.493 224.65 146.834C202.072 167.176 185.882 193.634 178.044 222.999H122.394C125.172 189.319 140.498 157.912 165.337 135.003C190.175 112.094 222.713 99.3537 256.5 99.3085ZM324.699 382.778C322.798 383.649 321.187 385.048 320.059 386.809C318.93 388.57 318.331 390.618 318.333 392.709V408.534C318.333 409.499 317.95 410.425 317.268 411.107C316.586 411.789 315.661 412.172 314.696 412.172H198.304C197.339 412.172 196.414 411.789 195.732 411.107C195.05 410.425 194.667 409.499 194.667 408.534V392.709C194.669 390.618 194.07 388.57 192.941 386.809C191.813 385.048 190.202 383.649 188.301 382.778C161.534 370.431 138.579 351.109 121.845 326.838C105.11 302.567 95.2119 274.24 93.1873 244.827H419.813C417.788 274.24 407.89 302.567 391.155 326.838C374.421 351.109 351.466 370.431 324.699 382.778Z"
            fill="white" />
        <path
            d="M339.829 226.629C337.584 229.155 333.593 229.007 331.541 226.323V226.323C330.047 224.369 330.07 221.649 331.597 219.721L449.583 70.746C450.286 69.8731 451.568 69.7477 452.427 70.468L465.603 81.5241C465.77 81.6646 465.919 81.8289 466.013 82.026C466.295 82.6146 466.318 83.181 466.167 84.0711C466.108 84.4155 465.945 84.7325 465.712 84.9936L339.829 226.629Z"
            fill="white" />
        <path
            d="M176.42 227.101C178.668 229.638 182.673 229.49 184.729 226.795V226.795C186.218 224.84 186.195 222.125 184.672 220.196L66.6764 70.7483C65.9738 69.8727 64.6912 69.7469 63.8328 70.4694L50.6561 81.5602C50.489 81.7008 50.3404 81.8653 50.2464 82.0624C49.9644 82.6537 49.9409 83.2225 50.0928 84.1172C50.1512 84.461 50.3144 84.7776 50.5456 85.0386L176.42 227.101Z"
            fill="white" />
    </g>
    <defs>
        <linearGradient id="paint0_linear_181_560" x1="111.346" y1="41.8736" x2="429.204"
            y2="452.996" gradientUnits="userSpaceOnUse">
            <stop stop-color="#18A192" />
            <stop offset="1" />
        </linearGradient>
        <clipPath id="clip0_181_560">
            <rect width="512" height="512" fill="white" />
        </clipPath>
    </defs>
</svg>